<svg xmlns="http://www.w3.org/2000/svg" width="1200" height="720" viewBox="0 0 1200 720">
<defs><linearGradient id="b" x1="0" y1="0" x2="1" y2="1"><stop stop-color="#16375d"/><stop offset=".45" stop-color="#071421"/><stop offset="1" stop-color="#040912"/></linearGradient><linearGradient id="p" x1="0" y1="0" x2="0" y2="1"><stop stop-color="#142842"/><stop offset="1" stop-color="#0b1829"/></linearGradient><filter id="s"><feDropShadow dx="0" dy="22" stdDeviation="24" flood-opacity=".48"/></filter></defs>
<rect width="1200" height="720" fill="url(#b)"/>
<g opacity=".06" stroke="#fff"><path d="M0 40H1200M0 80H1200M0 120H1200M0 160H1200M0 200H1200M0 240H1200M0 280H1200M0 320H1200M0 360H1200M0 400H1200M0 440H1200M0 480H1200M0 520H1200M0 560H1200M0 600H1200M0 640H1200M0 680H1200"/></g>
<g filter="url(#s)"><rect x="52" y="38" width="1096" height="640" rx="18" fill="#08111e" stroke="#36506d"/><rect x="52" y="38" width="1096" height="50" rx="18" fill="#17273c"/><rect x="52" y="70" width="1096" height="18" fill="#17273c"/>
<rect x="70" y="52" width="23" height="23" rx="6" fill="#4f9dff"/><g fill="#fff"><rect x="75" y="57" width="5" height="5"/><rect x="83" y="57" width="5" height="5"/><rect x="75" y="65" width="5" height="5"/><rect x="83" y="65" width="5" height="5"/></g>
<text x="104" y="64" fill="#eff6ff" font-family="Segoe UI,Arial" font-size="12" font-weight="700">Infrastructure Reliability Console</text><text x="104" y="77" fill="#7f96b0" font-family="Segoe UI,Arial" font-size="8">Windows Operations Lab</text>
<rect x="52" y="88" width="198" height="590" fill="#091421"/><line x1="250" y1="88" x2="250" y2="678" stroke="#263b55"/><rect x="68" y="108" width="165" height="48" rx="10" fill="#0e2237" stroke="#24547f"/><circle cx="84" cy="132" r="5" fill="#45d483"/><text x="96" y="128" fill="#eaf3ff" font-family="Segoe UI,Arial" font-size="10" font-weight="700">Lab environment</text><text x="96" y="143" fill="#8097b1" font-family="Segoe UI,Arial" font-size="8">Simulation mode</text>
<rect x="66" y="174" width="168" height="37" rx="8" fill="#112943"/><rect x="79" y="189" width="7" height="7" rx="2" fill="#54a8ff"/><text x="98" y="198" fill="#fff" font-family="Segoe UI,Arial" font-size="10" font-weight="700">Overview</text><g fill="#869db7" font-family="Segoe UI,Arial" font-size="10"><text x="98" y="242">Network</text><text x="98" y="282">Backup</text><text x="98" y="322">Events</text></g>
<text x="282" y="122" fill="#69b4ff" font-family="Segoe UI,Arial" font-size="8" font-weight="800">ENTERPRISE INFRASTRUCTURE PRACTICE LAB</text><text x="282" y="154" fill="#eff6ff" font-family="Segoe UI,Arial" font-size="27" font-weight="800">Overview</text><text x="282" y="177" fill="#8fa6bf" font-family="Segoe UI,Arial" font-size="10">Service health, network paths, backup integrity and safe recovery workflows.</text>
<rect x="1017" y="120" width="97" height="29" rx="15" fill="#0d2e23" stroke="#2d8054"/><circle cx="1033" cy="135" r="4" fill="#45d483"/><text x="1044" y="139" fill="#8cebae" font-family="Segoe UI,Arial" font-size="9" font-weight="700">Operational</text>
<g font-family="Segoe UI,Arial"><rect x="282" y="203" width="195" height="84" rx="11" fill="url(#p)" stroke="#293f58"/><text x="298" y="225" fill="#8fa6bf" font-size="9">Availability</text><text x="298" y="254" fill="#eff6ff" font-size="23" font-weight="800">100.0%</text><text x="298" y="273" fill="#72d99b" font-size="8">4 of 4 nodes healthy</text>
<rect x="490" y="203" width="195" height="84" rx="11" fill="url(#p)" stroke="#293f58"/><text x="506" y="225" fill="#8fa6bf" font-size="9">Average latency</text><text x="506" y="254" fill="#eff6ff" font-size="23" font-weight="800">21 ms</text><text x="506" y="273" fill="#72d99b" font-size="8">Healthy service paths</text>
<rect x="698" y="203" width="195" height="84" rx="11" fill="url(#p)" stroke="#293f58"/><text x="714" y="225" fill="#8fa6bf" font-size="9">Backup integrity</text><text x="714" y="254" fill="#eff6ff" font-size="23" font-weight="800">Verified</text><text x="714" y="273" fill="#72d99b" font-size="8">SHA-256 verification</text>
<rect x="906" y="203" width="208" height="84" rx="11" fill="url(#p)" stroke="#293f58"/><text x="922" y="225" fill="#8fa6bf" font-size="9">Last health scan</text><text x="922" y="254" fill="#eff6ff" font-size="23" font-weight="800">All clear</text><text x="922" y="273" fill="#72d99b" font-size="8">PowerShell workflow</text></g>
<rect x="282" y="302" width="557" height="333" rx="12" fill="url(#p)" stroke="#293f58"/><text x="299" y="327" fill="#69b4ff" font-family="Segoe UI,Arial" font-size="8" font-weight="800">INFRASTRUCTURE</text><text x="299" y="350" fill="#eff6ff" font-family="Segoe UI,Arial" font-size="16" font-weight="800">Service nodes</text>
<g font-family="Segoe UI,Arial"><line x1="299" y1="369" x2="822" y2="369" stroke="#21364c"/><circle cx="307" cy="397" r="4" fill="#45d483"/><text x="322" y="394" fill="#fff" font-size="10" font-weight="700">WEB-01</text><text x="322" y="408" fill="#8096ae" font-size="8">Web Gateway</text><text x="458" y="400" fill="#b8c9da" font-size="9">Zone A</text><rect x="746" y="386" width="67" height="22" rx="11" fill="#0e2b22" stroke="#286f4c"/><text x="779" y="400" text-anchor="middle" fill="#8cebae" font-size="8" font-weight="700">Healthy</text>
<line x1="299" y1="424" x2="822" y2="424" stroke="#21364c"/><circle cx="307" cy="452" r="4" fill="#45d483"/><text x="322" y="449" fill="#fff" font-size="10" font-weight="700">WEB-02</text><text x="322" y="463" fill="#8096ae" font-size="8">Web Gateway</text><text x="458" y="455" fill="#b8c9da" font-size="9">Zone B</text><rect x="746" y="441" width="67" height="22" rx="11" fill="#0e2b22" stroke="#286f4c"/><text x="779" y="455" text-anchor="middle" fill="#8cebae" font-size="8" font-weight="700">Healthy</text>
<line x1="299" y1="479" x2="822" y2="479" stroke="#21364c"/><circle cx="307" cy="507" r="4" fill="#45d483"/><text x="322" y="504" fill="#fff" font-size="10" font-weight="700">APP-01</text><text x="322" y="518" fill="#8096ae" font-size="8">Application Service</text><text x="458" y="510" fill="#b8c9da" font-size="9">Zone A</text><rect x="746" y="496" width="67" height="22" rx="11" fill="#0e2b22" stroke="#286f4c"/><text x="779" y="510" text-anchor="middle" fill="#8cebae" font-size="8" font-weight="700">Healthy</text>
<line x1="299" y1="534" x2="822" y2="534" stroke="#21364c"/><circle cx="307" cy="562" r="4" fill="#45d483"/><text x="322" y="559" fill="#fff" font-size="10" font-weight="700">DB-01</text><text x="322" y="573" fill="#8096ae" font-size="8">Data Service</text><text x="458" y="565" fill="#b8c9da" font-size="9">Zone B</text><rect x="746" y="551" width="67" height="22" rx="11" fill="#0e2b22" stroke="#286f4c"/><text x="779" y="565" text-anchor="middle" fill="#8cebae" font-size="8" font-weight="700">Healthy</text></g>
<rect x="852" y="302" width="262" height="333" rx="12" fill="url(#p)" stroke="#293f58"/><text x="870" y="327" fill="#69b4ff" font-family="Segoe UI,Arial" font-size="8" font-weight="800">OPERATIONS</text><text x="870" y="350" fill="#eff6ff" font-family="Segoe UI,Arial" font-size="16" font-weight="800">Recent events</text><g font-family="Segoe UI,Arial"><circle cx="875" cy="386" r="4" fill="#45d483"/><text x="889" y="382" fill="#d8e5f2" font-size="9" font-weight="700">Backup integrity check passed.</text><text x="889" y="397" fill="#6f859e" font-size="8">09:41:15</text><line x1="870" y1="415" x2="1096" y2="415" stroke="#21364c"/><circle cx="875" cy="449" r="4" fill="#54a8ff"/><text x="889" y="445" fill="#d8e5f2" font-size="9" font-weight="700">Four infrastructure nodes loaded.</text><text x="889" y="460" fill="#6f859e" font-size="8">09:41:12</text></g>
</g></svg>
